# xmcd
#
# Track frame offsets:
#	150
#	25448
#	39270
#	55406
#	74849
#
# Disc length: 1182 seconds
# Revision: 0
# Processed by: cddbd v1.5.2PL0 Copyright (c) Steve Scherf et al.
# Submitted via: dBpowerAMP V12.0
#
DISCID=46049c05
DTITLE=Christiana Perez - ChristiAna [dBP-LITE-FLAC@]
DYEAR=2004
DGENRE=Blues
TTITLE0=They Call It Stormy Monday
TTITLE1=Never Dreamed You'd Leave In Summer
TTITLE2=Misty Blue
TTITLE3=Do Right Woman Do Right Man
TTITLE4=I've Got To Use My Imagination
EXTD=
EXTT0=
EXTT1=
EXTT2=
EXTT3=
EXTT4=
PLAYORDER=
